# xmcd
#
# Track frame offsets: 
#        150
#        14025
#        28675
#        47548
#        71456
#        93862
#        111548
#        128498
#        149041
#        168439
#        183100
#        199273
#        209158
#        226216
#        248924
#        267388
#        286513
#        294639
#
# Disc length: 4157 seconds
#
# Revision: 1
# Processed by: cddbd v1.5.2PL0 Copyright (c) Steve Scherf et al.
# Submitted via: ExactAudioCopy v1.0b3
#
DISCID=11103b12
DTITLE=Various Artist - GOLDEN☆BEST 東京パフォーマンスドール Disc 2 Cover Songs M
DTITLE=HCL-1375-6
DYEAR=2008
DGENRE=JPop
TTITLE0=東京パフォーマンスドール - シェリーに口づけ
TTITLE1=原宿ジェンヌ - Two In Paris～男と女
TTITLE2=木原さとみ、米光美保、篠原涼子、川村知砂 - ファンタジー
TTITLE3=東京パフォーマンスドール - Fame
TTITLE4=米光美保 feat. KRYZLER and KOMPANY - 恋人よ～To Love You More
TTITLE5=木原さとみ - カーニヴァル
TTITLE6=GOLBIES - Let's Fall In Love
TTITLE7=東京パフォーマンスドール - Overnight Success
TTITLE8=東京パフォーマンスドール - ロコモーション
TTITLE9=八木田麻衣 - ラッキー・ラヴ
TTITLE10=穴井夕子 - 砂に消えた涙
TTITLE11=ViVA! - レモンのKiss
TTITLE12=櫃割香奈子 - 天使のらくがき
TTITLE13=TPD DASH!! - 空に太陽がある限り
TTITLE14=川村知砂 - バッド・ディザイアー
TTITLE15=東京パフォーマンスドール - Can't Stop The Music
TTITLE16=東京パフォーマンスドール - ショウほど素敵な商売はない
TTITLE17=篠原涼子 - 星に願いを
EXTD=
EXTT0=
EXTT1=
EXTT2=
EXTT3=
EXTT4=
EXTT5=
EXTT6=
EXTT7=
EXTT8=
EXTT9=
EXTT10=
EXTT11=
EXTT12=
EXTT13=
EXTT14=
EXTT15=
EXTT16=
EXTT17=
PLAYORDER=
